<?xml version="1.0" encoding="utf-8"?>
<!-- Generator: Adobe Illustrator 27.1.1, SVG Export Plug-In . SVG Version: 6.00 Build 0)  -->
<svg version="1.1" id="Layer_1" xmlns="http://www.w3.org/2000/svg" xmlns:xlink="http://www.w3.org/1999/xlink" x="0px" y="0px"
	 viewBox="0 0 32 32" style="enable-background:new 0 0 32 32;" xml:space="preserve">
<style type="text/css">
	.st0{fill:#FFFFFF;}
	.st1{fill:#171717;}
</style>
<rect class="st0" width="32" height="32"/>
<g>
	<path class="st1" d="M16,5.7c-2.8,0-3.1,0-4.2,0.1C10.7,5.9,9.9,6,9.3,6.3C8.6,6.5,8,6.9,7.4,7.5C6.9,8,6.5,8.6,6.3,9.3
		C6,9.9,5.8,10.7,5.8,11.8c-0.1,1.1-0.1,1.4-0.1,4.2s0,3.1,0.1,4.2c0,1.1,0.2,1.8,0.5,2.5c0.3,0.7,0.6,1.2,1.2,1.8
		c0.6,0.6,1.1,0.9,1.8,1.2c0.7,0.3,1.4,0.4,2.5,0.5s1.4,0.1,4.2,0.1s3.1,0,4.2-0.1c1.1,0,1.8-0.2,2.5-0.5s1.2-0.6,1.8-1.2
		c0.6-0.6,0.9-1.1,1.2-1.8c0.3-0.7,0.4-1.4,0.5-2.5s0.1-1.4,0.1-4.2s0-3.1-0.1-4.2c0-1.1-0.2-1.8-0.5-2.5s-0.6-1.2-1.2-1.8
		s-1.1-0.9-1.8-1.2C22,6,21.3,5.9,20.2,5.8C19.1,5.8,18.8,5.7,16,5.7L16,5.7L16,5.7z M16,7.6c2.7,0,3.1,0,4.2,0.1
		c1,0,1.5,0.2,1.9,0.4c0.5,0.2,0.8,0.4,1.2,0.8c0.4,0.4,0.6,0.7,0.8,1.2c0.1,0.4,0.3,0.9,0.4,1.9c0,1.1,0.1,1.4,0.1,4.2
		c0,2.7,0,3.1-0.1,4.2c0,1-0.2,1.5-0.4,1.9c-0.2,0.5-0.4,0.8-0.8,1.2c-0.4,0.4-0.7,0.6-1.2,0.8c-0.4,0.1-0.9,0.3-1.9,0.4
		c-1.1,0-1.4,0.1-4.2,0.1c-2.7,0-3.1,0-4.2-0.1c-1,0-1.5-0.2-1.9-0.4c-0.4-0.5-0.8-0.7-1.1-1c-0.4-0.4-0.6-0.7-0.8-1.2
		c-0.1-0.4-0.3-0.9-0.4-1.9c0-1.1-0.1-1.4-0.1-4.2c0-2.7,0-3.1,0.1-4.2c0-1,0.2-1.5,0.4-1.9c0.2-0.5,0.4-0.8,0.8-1.2
		C9.1,8.4,9.5,8.2,9.9,8c0.4-0.1,0.9-0.3,1.9-0.4C12.9,7.6,13.3,7.6,16,7.6"/>
	<path class="st1" d="M16,19.4c-1.9,0-3.4-1.5-3.4-3.4s1.5-3.4,3.4-3.4s3.4,1.5,3.4,3.4S17.9,19.4,16,19.4L16,19.4z M16,10.7
		c-2.9,0-5.3,2.4-5.3,5.3s2.4,5.3,5.3,5.3s5.3-2.4,5.3-5.3S18.9,10.7,16,10.7L16,10.7z"/>
	<path class="st1" d="M22.7,10.5c0,0.7-0.6,1.2-1.2,1.2c-0.7,0-1.2-0.6-1.2-1.2c0-0.6,0.5-1.2,1.2-1.2S22.7,9.9,22.7,10.5L22.7,10.5
		z"/>
</g>
</svg>
