<?xml version="1.0" encoding="utf-8"?>
<!-- Generator: Adobe Illustrator 27.1.1, SVG Export Plug-In . SVG Version: 6.00 Build 0)  -->
<svg version="1.1" id="Layer_1" xmlns="http://www.w3.org/2000/svg" xmlns:xlink="http://www.w3.org/1999/xlink" x="0px" y="0px"
	 viewBox="0 0 32 32" style="enable-background:new 0 0 32 32;" xml:space="preserve">
<style type="text/css">
	.st0{fill:#FFFFFF;}
	.st1{fill:#171717;}
</style>
<rect class="st0" width="32" height="32"/>
<g id="Twitter">
	<path class="st1" d="M26,9.8c-0.5,0.8-1.3,1.5-2.1,2.1c0,0.2,0,0.4,0,0.5c0,2.9-1.1,5.7-3,7.9c-2.2,2.5-5.4,3.9-8.6,3.8
		c-2.3,0-4.5-0.6-6.3-1.8c0.4,0,0.6,0,1,0c1.8,0,3.6-0.6,5.1-1.8c-0.9,0-1.7-0.3-2.4-0.8c-0.7-0.5-1.2-1.2-1.5-2
		c0.2,0,0.5,0,0.7,0.1c0.4,0,0.7,0,1.1-0.1c-1.9-0.5-3.2-2.2-3.2-4.1v-0.1c0.7,0.3,1.3,0.5,1.9,0.6c-1.2-0.7-1.8-2-1.8-3.5
		c0-0.7,0.2-1.5,0.5-2.1c2,2.6,5.1,4.2,8.5,4.3c-0.1-0.3-0.1-0.6-0.1-0.9c0-2.3,1.8-4.1,4.1-4.1l0,0c1.2,0,2.3,0.5,3,1.3
		c0.9-0.2,1.8-0.5,2.6-1c-0.3,1-0.9,1.8-1.8,2.3C24.5,10.4,25.3,10.1,26,9.8z"/>
</g>
</svg>
